<svg xmlns="http://www.w3.org/2000/svg" xmlns:xlink="http://www.w3.org/1999/xlink" width="2000" zoomAndPan="magnify" viewBox="0 0 1500 1499.999933" height="2000" preserveAspectRatio="xMidYMid meet" version="1.0"><defs><g/><clipPath id="44708ededd"><path d="M 326.011719 497.089844 L 1174.261719 497.089844 L 1174.261719 678 L 326.011719 678 Z M 326.011719 497.089844 " clip-rule="nonzero"/></clipPath><clipPath id="8e43056013"><path d="M 733 655 L 768 655 L 768 689.839844 L 733 689.839844 Z M 733 655 " clip-rule="nonzero"/></clipPath></defs><rect x="-150" width="1800" fill="#ffffff" y="-149.999993" height="1799.99992" fill-opacity="1"/><rect x="-150" width="1800" fill="#ffffff" y="-149.999993" height="1799.99992" fill-opacity="1"/><g fill="#595e63" fill-opacity="1"><g transform="translate(437.578033, 778.581657)"><g><path d="M 5.84375 -43.109375 L 10.78125 -43.109375 L 10.78125 0 L 5.84375 0 Z M 5.84375 -43.109375 "/></g></g></g><g fill="#595e63" fill-opacity="1"><g transform="translate(460.553316, 778.581657)"><g><path d="M 5.84375 -43.109375 L 10.46875 -43.109375 L 36.953125 -6.78125 L 37.265625 -6.78125 L 37.265625 -43.109375 L 40.34375 -43.109375 L 40.34375 0 L 35.71875 0 L 9.234375 -36.34375 L 8.9375 -36.34375 L 8.9375 0 L 5.84375 0 Z M 5.84375 -43.109375 "/></g></g></g><g fill="#595e63" fill-opacity="1"><g transform="translate(513.093571, 778.581657)"><g><path d="M 5.84375 -43.109375 L 18.171875 -43.109375 C 21.617188 -43.109375 24.78125 -42.546875 27.65625 -41.421875 C 30.53125 -40.296875 33.003906 -38.765625 35.078125 -36.828125 C 37.148438 -34.898438 38.75 -32.617188 39.875 -29.984375 C 41.007812 -27.359375 41.578125 -24.550781 41.578125 -21.5625 C 41.578125 -18.5625 41.007812 -15.742188 39.875 -13.109375 C 38.75 -10.484375 37.148438 -8.207031 35.078125 -6.28125 C 33.003906 -4.351562 30.53125 -2.820312 27.65625 -1.6875 C 24.78125 -0.5625 21.617188 0 18.171875 0 L 5.84375 0 Z M 18.171875 -3.078125 C 20.796875 -3.078125 23.21875 -3.535156 25.4375 -4.453125 C 27.65625 -5.378906 29.570312 -6.65625 31.1875 -8.28125 C 32.8125 -9.90625 34.078125 -11.847656 34.984375 -14.109375 C 35.890625 -16.367188 36.34375 -18.851562 36.34375 -21.5625 C 36.34375 -24.269531 35.890625 -26.75 34.984375 -29 C 34.078125 -31.257812 32.8125 -33.203125 31.1875 -34.828125 C 29.570312 -36.453125 27.65625 -37.722656 25.4375 -38.640625 C 23.21875 -39.566406 20.796875 -40.03125 18.171875 -40.03125 L 10.78125 -40.03125 L 10.78125 -3.078125 Z M 18.171875 -3.078125 "/></g></g></g><g fill="#595e63" fill-opacity="1"><g transform="translate(564.093991, 778.581657)"><g><path d="M 5.84375 -43.109375 L 10.78125 -43.109375 L 10.78125 0 L 5.84375 0 Z M 5.84375 -43.109375 "/></g></g></g><g fill="#595e63" fill-opacity="1"><g transform="translate(587.069273, 778.581657)"><g><path d="M 19.40625 -43.109375 L 23.40625 -43.109375 L 41.578125 0 L 36.03125 0 L 31.40625 -11.09375 L 9.546875 -11.09375 L 4.921875 0 L 1.234375 0 Z M 30.1875 -14.171875 L 20.640625 -36.953125 L 20.328125 -36.953125 L 10.78125 -14.171875 Z M 30.1875 -14.171875 "/></g></g></g><g fill="#595e63" fill-opacity="1"><g transform="translate(636.221883, 778.581657)"><g><path d="M 5.84375 -43.109375 L 10.46875 -43.109375 L 36.953125 -6.78125 L 37.265625 -6.78125 L 37.265625 -43.109375 L 40.34375 -43.109375 L 40.34375 0 L 35.71875 0 L 9.234375 -36.34375 L 8.9375 -36.34375 L 8.9375 0 L 5.84375 0 Z M 5.84375 -43.109375 "/></g></g></g><g fill="#595e63" fill-opacity="1"><g transform="translate(688.762139, 778.581657)"><g/></g></g><g fill="#595e63" fill-opacity="1"><g transform="translate(709.889624, 778.581657)"><g><path d="M 19.40625 -43.109375 L 23.40625 -43.109375 L 41.578125 0 L 36.03125 0 L 31.40625 -11.09375 L 9.546875 -11.09375 L 4.921875 0 L 1.234375 0 Z M 30.1875 -14.171875 L 20.640625 -36.953125 L 20.328125 -36.953125 L 10.78125 -14.171875 Z M 30.1875 -14.171875 "/></g></g></g><g fill="#595e63" fill-opacity="1"><g transform="translate(759.042223, 778.581657)"><g><path d="M 25.25 1.234375 C 22.175781 1.234375 19.289062 0.648438 16.59375 -0.515625 C 13.90625 -1.691406 11.554688 -3.296875 9.546875 -5.328125 C 7.535156 -7.359375 5.953125 -9.757812 4.796875 -12.53125 C 3.648438 -15.300781 3.078125 -18.3125 3.078125 -21.5625 C 3.078125 -24.800781 3.648438 -27.804688 4.796875 -30.578125 C 5.953125 -33.347656 7.535156 -35.75 9.546875 -37.78125 C 11.554688 -39.820312 13.90625 -41.425781 16.59375 -42.59375 C 19.289062 -43.757812 22.175781 -44.34375 25.25 -44.34375 C 28.082031 -44.34375 30.578125 -43.867188 32.734375 -42.921875 C 34.890625 -41.984375 36.6875 -40.957031 38.125 -39.84375 C 39.8125 -38.53125 41.269531 -37.054688 42.5 -35.421875 L 40.65625 -33.875 C 39.582031 -35.3125 38.285156 -36.585938 36.765625 -37.703125 C 35.453125 -38.640625 33.84375 -39.519531 31.9375 -40.34375 C 30.03125 -41.164062 27.800781 -41.578125 25.25 -41.578125 C 23.03125 -41.578125 20.894531 -41.09375 18.84375 -40.125 C 16.789062 -39.164062 14.984375 -37.8125 13.421875 -36.0625 C 11.867188 -34.320312 10.628906 -32.21875 9.703125 -29.75 C 8.773438 -27.28125 8.3125 -24.550781 8.3125 -21.5625 C 8.3125 -18.5625 8.773438 -15.828125 9.703125 -13.359375 C 10.628906 -10.898438 11.867188 -8.796875 13.421875 -7.046875 C 14.984375 -5.304688 16.789062 -3.953125 18.84375 -2.984375 C 20.894531 -2.023438 23.03125 -1.546875 25.25 -1.546875 C 28.039062 -1.546875 30.453125 -1.960938 32.484375 -2.796875 C 34.523438 -3.640625 36.222656 -4.597656 37.578125 -5.671875 C 39.171875 -6.898438 40.503906 -8.296875 41.578125 -9.859375 L 43.421875 -8.3125 C 42.191406 -6.507812 40.691406 -4.910156 38.921875 -3.515625 C 37.398438 -2.316406 35.507812 -1.222656 33.25 -0.234375 C 31 0.742188 28.332031 1.234375 25.25 1.234375 Z M 25.25 1.234375 "/></g></g></g><g fill="#595e63" fill-opacity="1"><g transform="translate(810.04263, 778.581657)"><g><path d="M 19.40625 -43.109375 L 23.40625 -43.109375 L 41.578125 0 L 36.03125 0 L 31.40625 -11.09375 L 9.546875 -11.09375 L 4.921875 0 L 1.234375 0 Z M 30.1875 -14.171875 L 20.640625 -36.953125 L 20.328125 -36.953125 L 10.78125 -14.171875 Z M 30.1875 -14.171875 "/></g></g></g><g fill="#595e63" fill-opacity="1"><g transform="translate(859.195275, 778.581657)"><g><path d="M 5.84375 -43.109375 L 18.171875 -43.109375 C 21.617188 -43.109375 24.78125 -42.546875 27.65625 -41.421875 C 30.53125 -40.296875 33.003906 -38.765625 35.078125 -36.828125 C 37.148438 -34.898438 38.75 -32.617188 39.875 -29.984375 C 41.007812 -27.359375 41.578125 -24.550781 41.578125 -21.5625 C 41.578125 -18.5625 41.007812 -15.742188 39.875 -13.109375 C 38.75 -10.484375 37.148438 -8.207031 35.078125 -6.28125 C 33.003906 -4.351562 30.53125 -2.820312 27.65625 -1.6875 C 24.78125 -0.5625 21.617188 0 18.171875 0 L 5.84375 0 Z M 18.171875 -3.078125 C 20.796875 -3.078125 23.21875 -3.535156 25.4375 -4.453125 C 27.65625 -5.378906 29.570312 -6.65625 31.1875 -8.28125 C 32.8125 -9.90625 34.078125 -11.847656 34.984375 -14.109375 C 35.890625 -16.367188 36.34375 -18.851562 36.34375 -21.5625 C 36.34375 -24.269531 35.890625 -26.75 34.984375 -29 C 34.078125 -31.257812 32.8125 -33.203125 31.1875 -34.828125 C 29.570312 -36.453125 27.65625 -37.722656 25.4375 -38.640625 C 23.21875 -39.566406 20.796875 -40.03125 18.171875 -40.03125 L 10.78125 -40.03125 L 10.78125 -3.078125 Z M 18.171875 -3.078125 "/></g></g></g><g fill="#595e63" fill-opacity="1"><g transform="translate(910.195682, 778.581657)"><g><path d="M 19.40625 -43.109375 L 23.40625 -43.109375 L 41.578125 0 L 36.03125 0 L 31.40625 -11.09375 L 9.546875 -11.09375 L 4.921875 0 L 1.234375 0 Z M 30.1875 -14.171875 L 20.640625 -36.953125 L 20.328125 -36.953125 L 10.78125 -14.171875 Z M 30.1875 -14.171875 "/></g></g></g><g fill="#595e63" fill-opacity="1"><g transform="translate(959.348281, 778.581657)"><g><path d="M 5.84375 -43.109375 L 10.46875 -43.109375 L 28.953125 -13.546875 L 29.25 -13.546875 L 47.734375 -43.109375 L 52.046875 -43.109375 L 52.046875 0 L 47.125 0 L 47.125 -35.71875 L 46.8125 -35.71875 L 28.640625 -6.78125 L 27.40625 -6.78125 L 9.234375 -35.71875 L 8.9375 -35.71875 L 8.9375 0 L 5.84375 0 Z M 5.84375 -43.109375 "/></g></g></g><g fill="#595e63" fill-opacity="1"><g transform="translate(1023.591333, 778.581657)"><g><path d="M 16.9375 -14.46875 L 0.609375 -43.109375 L 6.15625 -43.109375 L 20.328125 -18.484375 L 20.640625 -18.484375 L 34.796875 -43.109375 L 38.1875 -43.109375 L 21.859375 -14.46875 L 21.859375 0 L 16.9375 0 Z M 16.9375 -14.46875 "/></g></g></g><g fill="#595e63" fill-opacity="1"><g transform="translate(682.417859, 846.831651)"><g/></g></g><g fill="#595e63" fill-opacity="1"><g transform="translate(703.54676, 846.831651)"><g><path d="M 25.25 1.234375 C 22.175781 1.234375 19.289062 0.648438 16.59375 -0.515625 C 13.90625 -1.691406 11.554688 -3.296875 9.546875 -5.328125 C 7.535156 -7.359375 5.953125 -9.757812 4.796875 -12.53125 C 3.648438 -15.300781 3.078125 -18.3125 3.078125 -21.5625 C 3.078125 -24.800781 3.648438 -27.804688 4.796875 -30.578125 C 5.953125 -33.347656 7.535156 -35.75 9.546875 -37.78125 C 11.554688 -39.820312 13.90625 -41.425781 16.59375 -42.59375 C 19.289062 -43.757812 22.175781 -44.34375 25.25 -44.34375 C 28.332031 -44.34375 31.21875 -43.757812 33.90625 -42.59375 C 36.59375 -41.425781 38.941406 -39.820312 40.953125 -37.78125 C 42.972656 -35.75 44.554688 -33.347656 45.703125 -30.578125 C 46.847656 -27.804688 47.421875 -24.800781 47.421875 -21.5625 C 47.421875 -18.3125 46.847656 -15.300781 45.703125 -12.53125 C 44.554688 -9.757812 42.972656 -7.359375 40.953125 -5.328125 C 38.941406 -3.296875 36.59375 -1.691406 33.90625 -0.515625 C 31.21875 0.648438 28.332031 1.234375 25.25 1.234375 Z M 25.25 -1.546875 C 27.46875 -1.546875 29.601562 -2.023438 31.65625 -2.984375 C 33.707031 -3.953125 35.515625 -5.304688 37.078125 -7.046875 C 38.640625 -8.796875 39.878906 -10.898438 40.796875 -13.359375 C 41.722656 -15.828125 42.1875 -18.5625 42.1875 -21.5625 C 42.1875 -24.550781 41.722656 -27.28125 40.796875 -29.75 C 39.878906 -32.21875 38.640625 -34.320312 37.078125 -36.0625 C 35.515625 -37.8125 33.707031 -39.164062 31.65625 -40.125 C 29.601562 -41.09375 27.46875 -41.578125 25.25 -41.578125 C 23.03125 -41.578125 20.894531 -41.09375 18.84375 -40.125 C 16.789062 -39.164062 14.984375 -37.8125 13.421875 -36.0625 C 11.867188 -34.320312 10.628906 -32.21875 9.703125 -29.75 C 8.773438 -27.28125 8.3125 -24.550781 8.3125 -21.5625 C 8.3125 -18.5625 8.773438 -15.828125 9.703125 -13.359375 C 10.628906 -10.898438 11.867188 -8.796875 13.421875 -7.046875 C 14.984375 -5.304688 16.789062 -3.953125 18.84375 -2.984375 C 20.894531 -2.023438 23.03125 -1.546875 25.25 -1.546875 Z M 25.25 -1.546875 "/></g></g></g><g fill="#595e63" fill-opacity="1"><g transform="translate(760.398577, 846.831651)"><g><path d="M 5.84375 -43.109375 L 35.421875 -43.109375 L 34.796875 -40.03125 L 10.78125 -40.03125 L 10.78125 -22.171875 L 29.875 -22.171875 L 29.25 -19.09375 L 10.78125 -19.09375 L 10.78125 0 L 5.84375 0 Z M 5.84375 -43.109375 "/></g></g></g><g fill="#595e63" fill-opacity="1"><g transform="translate(802.781127, 846.831651)"><g/></g></g><g fill="#e75c33" fill-opacity="1"><g transform="translate(522.98325, 916.045677)"><g><path d="M 1.015625 0 L 18.296875 -42 L 23.21875 -42 L 40.5 0 L 34.921875 0 L 30.953125 -9.546875 L 10.5 -9.546875 L 6.65625 0 Z M 12.546875 -14.453125 L 28.984375 -14.453125 L 20.765625 -34.625 Z M 12.546875 -14.453125 "/></g></g></g><g fill="#e75c33" fill-opacity="1"><g transform="translate(578.535122, 916.045677)"><g><path d="M 24.71875 0.78125 C 21.632812 0.78125 18.789062 0.242188 16.1875 -0.828125 C 13.59375 -1.910156 11.34375 -3.421875 9.4375 -5.359375 C 7.539062 -7.304688 6.070312 -9.609375 5.03125 -12.265625 C 4 -14.929688 3.484375 -17.84375 3.484375 -21 C 3.484375 -24.15625 4 -27.0625 5.03125 -29.71875 C 6.070312 -32.382812 7.539062 -34.6875 9.4375 -36.625 C 11.34375 -38.570312 13.59375 -40.082031 16.1875 -41.15625 C 18.789062 -42.238281 21.632812 -42.78125 24.71875 -42.78125 C 28.039062 -42.78125 31.09375 -42.171875 33.875 -40.953125 C 36.65625 -39.734375 39.035156 -37.992188 41.015625 -35.734375 C 42.992188 -33.472656 44.441406 -30.800781 45.359375 -27.71875 L 39.71875 -27.71875 C 38.632812 -30.757812 36.765625 -33.148438 34.109375 -34.890625 C 31.453125 -36.628906 28.382812 -37.5 24.90625 -37.5 C 21.78125 -37.5 19.015625 -36.796875 16.609375 -35.390625 C 14.210938 -33.992188 12.320312 -32.054688 10.9375 -29.578125 C 9.5625 -27.097656 8.875 -24.238281 8.875 -21 C 8.875 -17.757812 9.5625 -14.898438 10.9375 -12.421875 C 12.320312 -9.941406 14.210938 -8 16.609375 -6.59375 C 19.015625 -5.195312 21.78125 -4.5 24.90625 -4.5 C 28.457031 -4.5 31.613281 -5.414062 34.375 -7.25 C 37.132812 -9.09375 39.054688 -11.597656 40.140625 -14.765625 L 45.71875 -14.765625 C 44.875 -11.640625 43.441406 -8.914062 41.421875 -6.59375 C 39.410156 -4.28125 36.972656 -2.472656 34.109375 -1.171875 C 31.242188 0.128906 28.113281 0.78125 24.71875 0.78125 Z M 24.71875 0.78125 "/></g></g></g><g fill="#e75c33" fill-opacity="1"><g transform="translate(641.525537, 916.045677)"><g><path d="M 24.71875 0.78125 C 21.632812 0.78125 18.789062 0.242188 16.1875 -0.828125 C 13.59375 -1.910156 11.34375 -3.421875 9.4375 -5.359375 C 7.539062 -7.304688 6.070312 -9.609375 5.03125 -12.265625 C 4 -14.929688 3.484375 -17.84375 3.484375 -21 C 3.484375 -24.15625 4 -27.0625 5.03125 -29.71875 C 6.070312 -32.382812 7.539062 -34.6875 9.4375 -36.625 C 11.34375 -38.570312 13.59375 -40.082031 16.1875 -41.15625 C 18.789062 -42.238281 21.632812 -42.78125 24.71875 -42.78125 C 28.039062 -42.78125 31.09375 -42.171875 33.875 -40.953125 C 36.65625 -39.734375 39.035156 -37.992188 41.015625 -35.734375 C 42.992188 -33.472656 44.441406 -30.800781 45.359375 -27.71875 L 39.71875 -27.71875 C 38.632812 -30.757812 36.765625 -33.148438 34.109375 -34.890625 C 31.453125 -36.628906 28.382812 -37.5 24.90625 -37.5 C 21.78125 -37.5 19.015625 -36.796875 16.609375 -35.390625 C 14.210938 -33.992188 12.320312 -32.054688 10.9375 -29.578125 C 9.5625 -27.097656 8.875 -24.238281 8.875 -21 C 8.875 -17.757812 9.5625 -14.898438 10.9375 -12.421875 C 12.320312 -9.941406 14.210938 -8 16.609375 -6.59375 C 19.015625 -5.195312 21.78125 -4.5 24.90625 -4.5 C 28.457031 -4.5 31.613281 -5.414062 34.375 -7.25 C 37.132812 -9.09375 39.054688 -11.597656 40.140625 -14.765625 L 45.71875 -14.765625 C 44.875 -11.640625 43.441406 -8.914062 41.421875 -6.59375 C 39.410156 -4.28125 36.972656 -2.472656 34.109375 -1.171875 C 31.242188 0.128906 28.113281 0.78125 24.71875 0.78125 Z M 24.71875 0.78125 "/></g></g></g><g fill="#e75c33" fill-opacity="1"><g transform="translate(704.515953, 916.045677)"><g><path d="M 25.203125 0.78125 C 20.960938 0.78125 17.203125 -0.144531 13.921875 -2 C 10.640625 -3.863281 8.078125 -6.4375 6.234375 -9.71875 C 4.398438 -13 3.484375 -16.757812 3.484375 -21 C 3.484375 -25.28125 4.398438 -29.050781 6.234375 -32.3125 C 8.078125 -35.570312 10.640625 -38.128906 13.921875 -39.984375 C 17.203125 -41.847656 20.960938 -42.78125 25.203125 -42.78125 C 29.484375 -42.78125 33.253906 -41.847656 36.515625 -39.984375 C 39.773438 -38.128906 42.332031 -35.570312 44.1875 -32.3125 C 46.050781 -29.050781 46.984375 -25.28125 46.984375 -21 C 46.984375 -16.757812 46.050781 -13 44.1875 -9.71875 C 42.332031 -6.4375 39.773438 -3.863281 36.515625 -2 C 33.253906 -0.144531 29.484375 0.78125 25.203125 0.78125 Z M 8.875 -21 C 8.875 -17.757812 9.5625 -14.898438 10.9375 -12.421875 C 12.320312 -9.941406 14.242188 -8 16.703125 -6.59375 C 19.171875 -5.195312 22.003906 -4.5 25.203125 -4.5 C 28.441406 -4.5 31.28125 -5.195312 33.71875 -6.59375 C 36.15625 -8 38.0625 -9.941406 39.4375 -12.421875 C 40.820312 -14.898438 41.515625 -17.757812 41.515625 -21 C 41.515625 -24.28125 40.820312 -27.148438 39.4375 -29.609375 C 38.0625 -32.066406 36.15625 -33.992188 33.71875 -35.390625 C 31.28125 -36.796875 28.441406 -37.5 25.203125 -37.5 C 22.003906 -37.5 19.171875 -36.796875 16.703125 -35.390625 C 14.242188 -33.992188 12.320312 -32.066406 10.9375 -29.609375 C 9.5625 -27.148438 8.875 -24.28125 8.875 -21 Z M 8.875 -21 "/></g></g></g><g fill="#e75c33" fill-opacity="1"><g transform="translate(768.946104, 916.045677)"><g><path d="M 21.84375 0.71875 C 16.757812 0.71875 12.785156 -0.859375 9.921875 -4.015625 C 7.066406 -7.179688 5.640625 -11.539062 5.640625 -17.09375 L 5.640625 -42 L 10.859375 -42 L 10.859375 -17.453125 C 10.859375 -13.179688 11.796875 -9.941406 13.671875 -7.734375 C 15.554688 -5.535156 18.28125 -4.4375 21.84375 -4.4375 C 29.15625 -4.4375 32.8125 -8.773438 32.8125 -17.453125 L 32.8125 -42 L 38.09375 -42 L 38.09375 -17.09375 C 38.09375 -11.539062 36.648438 -7.179688 33.765625 -4.015625 C 30.890625 -0.859375 26.914062 0.71875 21.84375 0.71875 Z M 21.84375 0.71875 "/></g></g></g><g fill="#e75c33" fill-opacity="1"><g transform="translate(826.717522, 916.045677)"><g><path d="M 6.125 0 L 6.125 -42 L 11.09375 -42 L 34.3125 -9.125 L 34.3125 -42 L 39.484375 -42 L 39.484375 0 L 34.5625 0 L 11.34375 -32.875 L 11.34375 0 Z M 6.125 0 "/></g></g></g><g fill="#e75c33" fill-opacity="1"><g transform="translate(886.348606, 916.045677)"><g><path d="M 16.265625 0 L 16.265625 -36.953125 L 2.046875 -36.953125 L 2.046875 -42 L 35.703125 -42 L 35.703125 -36.953125 L 21.546875 -36.953125 L 21.546875 0 Z M 16.265625 0 "/></g></g></g><g fill="#e75c33" fill-opacity="1"><g transform="translate(938.181181, 916.045677)"><g><path d="M 20.09375 0.78125 C 16.738281 0.78125 13.832031 0.210938 11.375 -0.921875 C 8.914062 -2.066406 7.015625 -3.664062 5.671875 -5.71875 C 4.328125 -7.78125 3.632812 -10.175781 3.59375 -12.90625 L 8.875 -12.90625 C 8.957031 -10.21875 10.03125 -8.101562 12.09375 -6.5625 C 14.15625 -5.03125 16.820312 -4.265625 20.09375 -4.265625 C 23.0625 -4.265625 25.414062 -4.84375 27.15625 -6 C 28.894531 -7.15625 29.765625 -8.773438 29.765625 -10.859375 C 29.765625 -12.816406 28.921875 -14.382812 27.234375 -15.5625 C 25.554688 -16.75 22.816406 -17.78125 19.015625 -18.65625 C 13.859375 -19.894531 10.078125 -21.484375 7.671875 -23.421875 C 5.273438 -25.367188 4.078125 -27.960938 4.078125 -31.203125 C 4.078125 -34.765625 5.425781 -37.582031 8.125 -39.65625 C 10.832031 -41.738281 14.484375 -42.78125 19.078125 -42.78125 C 23.796875 -42.78125 27.523438 -41.597656 30.265625 -39.234375 C 33.003906 -36.878906 34.394531 -33.660156 34.4375 -29.578125 L 29.21875 -29.578125 C 29.175781 -32.097656 28.242188 -34.085938 26.421875 -35.546875 C 24.609375 -37.003906 22.160156 -37.734375 19.078125 -37.734375 C 16.078125 -37.734375 13.726562 -37.144531 12.03125 -35.96875 C 10.332031 -34.789062 9.484375 -33.203125 9.484375 -31.203125 C 9.484375 -29.484375 10.269531 -28.03125 11.84375 -26.84375 C 13.425781 -25.664062 16.257812 -24.578125 20.34375 -23.578125 C 25.695312 -22.253906 29.515625 -20.601562 31.796875 -18.625 C 34.078125 -16.644531 35.21875 -14.117188 35.21875 -11.046875 C 35.21875 -7.398438 33.847656 -4.515625 31.109375 -2.390625 C 28.367188 -0.273438 24.695312 0.78125 20.09375 0.78125 Z M 20.09375 0.78125 "/></g></g></g><g clip-path="url(#44708ededd)"><path fill="#e75c33" d="M 326.410156 670.78125 L 642.128906 670.78125 L 726.527344 677.21875 C 726.1875 675.695312 726.015625 674.167969 726.015625 672.476562 C 726.015625 671.289062 726.015625 670.101562 726.1875 669.085938 C 726.355469 668.070312 726.527344 667.050781 726.863281 666.035156 C 727.203125 665.019531 727.542969 664 727.882812 663.15625 C 727.882812 662.984375 728.050781 662.816406 728.050781 662.816406 C 728.21875 662.308594 728.558594 661.796875 728.898438 661.289062 C 729.066406 660.953125 729.238281 660.78125 729.40625 660.441406 C 729.746094 659.765625 730.253906 659.085938 730.761719 658.410156 C 730.933594 658.238281 730.933594 658.070312 731.101562 657.902344 C 731.609375 657.222656 732.117188 656.546875 732.796875 656.035156 C 732.796875 656.035156 732.964844 655.867188 732.964844 655.699219 C 733.644531 655.019531 734.320312 654.34375 735 653.832031 C 735 653.832031 735 653.832031 735.167969 653.664062 C 735.847656 653.15625 736.695312 652.476562 737.371094 651.96875 C 738.050781 651.460938 738.898438 651.121094 739.746094 650.613281 C 739.746094 650.613281 739.914062 650.613281 739.914062 650.445312 C 740.59375 650.105469 741.4375 649.765625 742.285156 649.597656 C 742.457031 649.597656 742.625 649.425781 742.625 649.425781 C 743.304688 649.257812 744.152344 648.917969 744.828125 648.75 C 745 648.75 745.167969 648.75 745.335938 648.578125 C 746.015625 648.410156 746.691406 648.410156 747.539062 648.242188 C 747.710938 648.242188 747.878906 648.242188 748.21875 648.242188 C 748.894531 648.242188 749.402344 648.070312 750.082031 648.070312 L 750.25 648.070312 C 750.421875 648.070312 750.589844 648.070312 750.929688 648.070312 C 751.605469 648.070312 752.285156 648.070312 752.964844 648.242188 C 753.132812 648.242188 753.472656 648.242188 753.640625 648.242188 C 754.320312 648.410156 754.996094 648.410156 755.675781 648.578125 C 755.84375 648.578125 756.011719 648.75 756.351562 648.75 C 757.03125 648.917969 757.707031 649.089844 758.386719 649.425781 C 758.554688 649.425781 758.726562 649.597656 758.894531 649.597656 C 759.574219 649.765625 760.25 650.105469 760.929688 650.445312 C 761.097656 650.445312 761.265625 650.613281 761.4375 650.613281 C 762.113281 650.953125 762.792969 651.460938 763.46875 651.800781 C 763.640625 651.800781 763.640625 651.96875 763.808594 651.96875 C 764.488281 652.476562 765.164062 652.984375 765.671875 653.496094 L 765.84375 653.664062 C 766.519531 654.171875 767.199219 654.851562 767.707031 655.527344 C 768.386719 656.207031 768.894531 656.882812 769.402344 657.730469 L 769.230469 657.902344 L 769.402344 657.902344 C 769.910156 658.578125 770.417969 659.425781 770.925781 660.273438 C 770.925781 660.273438 771.097656 660.441406 771.097656 660.613281 C 771.433594 661.121094 771.605469 661.628906 771.945312 662.136719 C 772.113281 662.308594 772.113281 662.644531 772.28125 662.816406 C 772.621094 663.664062 772.960938 664.679688 773.300781 665.527344 C 773.46875 666.542969 773.808594 667.390625 773.808594 668.40625 C 773.976562 669.59375 773.976562 670.609375 773.976562 671.796875 C 773.976562 673.492188 773.808594 675.015625 773.46875 676.542969 L 857.863281 670.101562 L 1173.414062 670.101562 C 1173.925781 670.101562 1174.261719 669.761719 1174.261719 669.253906 C 1174.261719 668.746094 1173.925781 668.40625 1173.414062 668.40625 L 857.527344 668.40625 L 792.109375 663.492188 L 816.175781 657.222656 L 918.027344 638.582031 C 918.535156 638.582031 918.703125 638.074219 918.703125 637.734375 C 918.703125 637.394531 918.363281 637.054688 917.855469 637.054688 L 917.6875 637.054688 L 815.835938 655.699219 L 790.078125 658.410156 L 814.140625 648.410156 L 912.601562 616.210938 C 912.941406 616.042969 913.28125 615.703125 913.109375 615.195312 C 912.941406 614.855469 912.773438 614.6875 912.433594 614.6875 L 912.265625 614.6875 L 813.800781 646.886719 L 788.722656 652.984375 L 811.089844 639.9375 L 904.46875 594.6875 C 904.808594 594.519531 904.976562 594.011719 904.808594 593.671875 C 904.636719 593.332031 904.46875 593.164062 904.128906 593.164062 C 903.960938 593.164062 903.960938 593.164062 903.789062 593.164062 L 810.414062 638.410156 L 786.519531 647.902344 L 806.855469 631.972656 L 893.285156 574.523438 C 893.621094 574.351562 893.792969 573.84375 893.453125 573.503906 C 893.285156 573.335938 893.113281 573.167969 892.773438 573.167969 C 892.605469 573.167969 892.4375 573.167969 892.265625 573.335938 L 805.835938 630.785156 L 783.296875 643.328125 L 801.429688 625.53125 L 879.386719 557.066406 C 879.726562 556.726562 879.726562 556.21875 879.386719 555.878906 C 879.21875 555.710938 879.046875 555.542969 878.710938 555.542969 C 878.539062 555.542969 878.371094 555.542969 878.199219 555.710938 L 800.414062 624.175781 L 779.570312 639.769531 L 795.160156 618.921875 L 863.289062 540.628906 C 863.625 540.289062 863.457031 539.78125 863.289062 539.441406 C 863.117188 539.273438 862.949219 539.273438 862.777344 539.273438 C 862.609375 539.273438 862.269531 539.441406 862.101562 539.613281 L 793.972656 618.074219 L 775.671875 636.207031 L 788.210938 613.5 L 845.324219 526.5625 C 845.492188 526.222656 845.492188 525.714844 845.152344 525.546875 C 844.984375 525.375 844.816406 525.375 844.644531 525.375 C 844.308594 525.375 844.136719 525.546875 843.96875 525.714844 L 787.027344 612.484375 L 771.265625 632.988281 L 780.757812 608.753906 L 825.496094 515.207031 C 825.664062 514.867188 825.496094 514.359375 825.15625 514.191406 C 824.988281 514.191406 824.988281 514.191406 824.816406 514.191406 C 824.480469 514.191406 824.308594 514.359375 824.140625 514.699219 L 779.230469 608.414062 L 766.351562 630.785156 L 772.453125 605.535156 L 804.480469 506.566406 C 804.652344 506.226562 804.3125 505.71875 803.972656 505.546875 L 803.804688 505.546875 C 803.464844 505.546875 803.125 505.71875 803.125 506.054688 L 771.097656 605.027344 L 761.265625 628.921875 L 763.980469 602.992188 L 782.449219 500.632812 C 782.449219 500.125 782.28125 499.785156 781.773438 499.785156 L 781.601562 499.785156 C 781.265625 499.785156 780.925781 500.125 780.757812 500.464844 L 761.945312 602.824219 L 755.503906 627.90625 L 754.65625 601.976562 L 759.234375 498.089844 C 759.234375 497.582031 758.894531 497.246094 758.554688 497.246094 C 758.214844 497.246094 757.707031 497.582031 757.707031 497.921875 L 753.132812 601.804688 L 750.082031 627.566406 L 745.84375 601.976562 L 736.523438 498.429688 C 736.523438 498.089844 736.1875 497.753906 735.675781 497.753906 C 735.167969 497.753906 735 498.089844 735 498.601562 L 744.320312 602.144531 L 744.660156 628.074219 L 737.03125 603.332031 L 713.816406 501.820312 C 713.816406 501.480469 713.476562 501.140625 712.96875 501.140625 L 712.800781 501.140625 C 712.289062 501.3125 712.121094 501.648438 712.121094 502.160156 L 735.339844 603.5 L 739.234375 629.261719 L 728.21875 605.703125 L 691.785156 508.429688 C 691.617188 508.089844 691.445312 507.921875 691.105469 507.921875 C 690.9375 507.921875 690.9375 507.921875 690.769531 507.921875 C 690.429688 508.089844 690.089844 508.597656 690.257812 508.9375 L 726.695312 606.210938 L 733.984375 630.957031 L 720.085938 609.09375 L 670.941406 517.582031 C 670.769531 517.242188 670.601562 517.242188 670.261719 517.242188 C 670.09375 517.242188 669.921875 517.242188 669.921875 517.410156 C 669.585938 517.582031 669.414062 518.089844 669.585938 518.429688 L 718.730469 609.941406 L 729.238281 633.667969 L 712.460938 613.839844 L 651.449219 529.78125 C 651.28125 529.613281 651.113281 529.441406 650.773438 529.441406 C 650.605469 529.441406 650.433594 529.441406 650.265625 529.613281 C 649.925781 529.953125 649.757812 530.289062 650.09375 530.800781 L 710.933594 614.6875 L 724.492188 636.886719 L 705.171875 619.429688 L 633.65625 544.355469 C 633.488281 544.1875 633.316406 544.1875 633.148438 544.1875 C 632.980469 544.1875 632.808594 544.1875 632.640625 544.355469 C 632.300781 544.695312 632.300781 545.203125 632.640625 545.542969 L 704.324219 620.617188 L 720.765625 640.613281 L 699.410156 626.039062 L 618.234375 561.132812 C 618.066406 560.964844 617.894531 560.964844 617.726562 560.964844 C 617.558594 560.964844 617.21875 561.132812 617.050781 561.304688 C 616.710938 561.640625 616.878906 562.152344 617.21875 562.488281 L 698.226562 627.226562 L 717.207031 644.851562 L 693.988281 633.328125 L 605.015625 580.113281 C 604.847656 580.113281 604.679688 579.945312 604.679688 579.945312 C 604.339844 579.945312 604.167969 580.113281 604 580.285156 C 603.832031 580.621094 603.832031 581.132812 604.339844 581.300781 L 693.308594 634.515625 L 714.492188 649.425781 L 689.921875 641.125 L 594.679688 600.28125 C 594.507812 600.28125 594.507812 600.28125 594.339844 600.28125 C 594 600.28125 593.664062 600.449219 593.664062 600.789062 C 593.492188 601.128906 593.664062 601.636719 594 601.804688 L 689.242188 642.648438 L 712.121094 654.511719 L 686.699219 649.597656 L 586.882812 621.972656 L 586.714844 621.972656 C 586.375 621.972656 586.035156 622.144531 585.867188 622.480469 C 585.695312 622.820312 586.035156 623.328125 586.375 623.5 L 686.191406 651.121094 L 710.597656 659.933594 L 684.667969 658.410156 L 582.136719 644.511719 C 582.136719 644.511719 582.136719 644.511719 581.96875 644.511719 C 581.628906 644.511719 581.292969 644.851562 581.121094 645.191406 C 581.121094 645.699219 581.292969 646.039062 581.800781 646.039062 L 684.496094 660.105469 L 704.832031 664.511719 L 642.46875 669.253906 L 326.578125 669.253906 C 326.070312 669.253906 325.730469 669.59375 325.730469 670.101562 C 325.730469 670.609375 326.070312 670.78125 326.410156 670.78125 Z M 326.410156 670.78125 " fill-opacity="1" fill-rule="nonzero"/></g><g clip-path="url(#8e43056013)"><path fill="#e75c33" d="M 766.351562 668.917969 C 766.183594 668.238281 766.011719 667.558594 765.84375 667.050781 C 765.671875 666.375 765.503906 665.867188 765.164062 665.359375 C 765.164062 665.1875 764.996094 665.1875 764.996094 665.019531 C 764.824219 664.511719 764.488281 664.171875 764.316406 663.664062 C 763.980469 663.15625 763.640625 662.644531 763.300781 662.136719 L 763.46875 661.96875 L 763.132812 661.96875 C 762.792969 661.628906 762.453125 661.121094 762.113281 660.78125 C 761.945312 660.613281 761.777344 660.441406 761.777344 660.441406 C 761.4375 660.105469 761.265625 659.933594 760.929688 659.59375 C 760.757812 659.425781 760.589844 659.257812 760.25 659.085938 C 760.082031 658.917969 759.742188 658.75 759.574219 658.578125 C 759.234375 658.410156 759.0625 658.238281 758.726562 658.070312 C 758.554688 657.902344 758.386719 657.902344 758.046875 657.730469 C 757.707031 657.5625 757.371094 657.390625 757.03125 657.222656 C 756.859375 657.222656 756.691406 657.054688 756.523438 657.054688 C 756.183594 656.882812 755.675781 656.714844 755.335938 656.546875 C 755.167969 656.546875 754.996094 656.375 754.996094 656.375 C 754.65625 656.207031 754.148438 656.207031 753.640625 656.035156 C 753.472656 656.035156 753.472656 656.035156 753.300781 656.035156 C 752.792969 655.867188 752.453125 655.867188 751.945312 655.867188 C 751.777344 655.867188 751.777344 655.867188 751.605469 655.867188 C 751.097656 655.867188 750.761719 655.867188 750.25 655.867188 L 749.914062 655.867188 C 749.402344 655.867188 749.066406 655.867188 748.558594 655.867188 C 748.386719 655.867188 748.21875 655.867188 748.046875 655.867188 C 747.710938 655.867188 747.203125 656.035156 746.863281 656.035156 C 746.691406 656.035156 746.355469 656.207031 746.183594 656.207031 C 745.84375 656.207031 745.507812 656.375 745.167969 656.546875 C 744.828125 656.546875 744.488281 656.714844 744.320312 656.882812 C 743.980469 657.054688 743.8125 657.054688 743.472656 657.222656 C 743.132812 657.390625 742.796875 657.5625 742.457031 657.730469 C 742.285156 657.730469 742.117188 657.902344 741.949219 658.070312 C 741.4375 658.410156 741.101562 658.578125 740.59375 658.917969 L 740.253906 658.75 L 740.421875 658.917969 C 739.914062 659.257812 739.40625 659.59375 739.066406 660.105469 C 738.558594 660.441406 738.21875 660.953125 737.710938 661.460938 C 737.542969 661.628906 737.542969 661.628906 737.371094 661.796875 C 737.03125 662.136719 736.695312 662.644531 736.523438 662.984375 C 736.1875 663.492188 735.847656 664.171875 735.507812 664.679688 C 735.507812 664.847656 735.339844 665.019531 735.339844 665.1875 C 735.167969 665.695312 734.828125 666.035156 734.660156 666.542969 C 734.320312 667.222656 734.152344 667.898438 733.984375 668.578125 C 733.8125 669.253906 733.644531 670.101562 733.644531 670.78125 C 733.644531 671.457031 733.472656 671.964844 733.472656 672.644531 C 733.472656 674 733.644531 675.355469 733.984375 676.542969 C 735.675781 684 742.457031 689.589844 750.421875 689.589844 C 758.386719 689.589844 764.996094 684 766.859375 676.542969 C 767.199219 675.355469 767.367188 674 767.367188 672.644531 C 767.367188 672.136719 767.367188 671.628906 767.367188 671.121094 C 766.691406 670.273438 766.519531 669.59375 766.351562 668.917969 Z M 766.351562 668.917969 " fill-opacity="1" fill-rule="nonzero"/></g></svg>